<?xml version="1.0" encoding="UTF-8" standalone="no"?>
<svg
   xmlns:dc="http://purl.org/dc/elements/1.1/"
   xmlns:cc="http://creativecommons.org/ns#"
   xmlns:rdf="http://www.w3.org/1999/02/22-rdf-syntax-ns#"
   xmlns:svg="http://www.w3.org/2000/svg"
   xmlns="http://www.w3.org/2000/svg"
   xmlns:sodipodi="http://sodipodi.sourceforge.net/DTD/sodipodi-0.dtd"
   xmlns:inkscape="http://www.inkscape.org/namespaces/inkscape"
   version="1.1"
   id="svg2"
   xml:space="preserve"
   width="981.33038"
   height="981.32385"
   viewBox="0 0 981.33034 981.32381"
   sodipodi:docname="favicon.svg"
   inkscape:version="0.92.4 (5da689c313, 2019-01-14)"><metadata
     id="metadata8"><rdf:RDF><cc:Work
         rdf:about=""><dc:format>image/svg+xml</dc:format><dc:type
           rdf:resource="http://purl.org/dc/dcmitype/StillImage" /><dc:title></dc:title></cc:Work></rdf:RDF></metadata><defs
     id="defs6"><clipPath
       clipPathUnits="userSpaceOnUse"
       id="clipPath48"><path
         d="m 5210.73,5857.17 c -47.93,0 -86.98,-37.38 -86.98,-83.56 v -357.23 c 0,-46.1 39.05,-83.57 86.98,-83.57 H 5583 c 47.96,0 86.99,37.47 86.99,83.57 v 357.23 c 0,46.18 -39.03,83.56 -86.99,83.56 z"
         id="path46"
         inkscape:connector-curvature="0" /></clipPath><linearGradient
       x1="0"
       y1="0"
       x2="1"
       y2="0"
       gradientUnits="userSpaceOnUse"
       gradientTransform="matrix(67.4503,483.442,483.442,-67.4503,5371.35,5412.12)"
       spreadMethod="pad"
       id="linearGradient54"><stop
         style="stop-opacity:1;stop-color:#d76d27"
         offset="0"
         id="stop50" /><stop
         style="stop-opacity:1;stop-color:#ee7a4f"
         offset="1"
         id="stop52" /></linearGradient></defs><sodipodi:namedview
     pagecolor="#ffffff"
     bordercolor="#666666"
     borderopacity="1"
     objecttolerance="10"
     gridtolerance="10"
     guidetolerance="10"
     inkscape:pageopacity="0"
     inkscape:pageshadow="2"
     inkscape:window-width="1920"
     inkscape:window-height="1018"
     id="namedview4"
     showgrid="false"
     fit-margin-top="0"
     fit-margin-left="0"
     fit-margin-right="0"
     fit-margin-bottom="0"
     inkscape:zoom="0.56413859"
     inkscape:cx="370.99259"
     inkscape:cy="524.15007"
     inkscape:window-x="-8"
     inkscape:window-y="853"
     inkscape:window-maximized="1"
     inkscape:current-layer="g10" /><g
     id="g10"
     inkscape:groupmode="layer"
     inkscape:label="ink_ext_XXXXXX"
     transform="matrix(1.3333333,0,0,-1.3333333,-42.668266,1023.9946)"><path
       inkscape:connector-curvature="0"
       id="path16"
       style="fill:#fbca4c;fill-opacity:1;fill-rule:nonzero;stroke:none;stroke-width:0.1"
       d="M 767.999,399.997 C 767.999,196.753 603.243,32.0031 400,32.0031 196.757,32.0031 32.0012,196.753 32.0012,399.997 c 0,203.234 164.7558,367.999 367.9988,367.999 203.243,0 367.999,-164.765 367.999,-367.999" /><path
       inkscape:connector-curvature="0"
       id="path18"
       style="fill:#df834d;fill-opacity:1;fill-rule:nonzero;stroke:none;stroke-width:0.1"
       d="M 581.448,572.807 H 244.731 c -28.007,0 -50.71,-21.803 -50.71,-48.698 V 211.964 c 0,-26.886 22.703,-48.698 50.71,-48.698 h 336.717 c 28.019,0 50.732,21.812 50.732,48.698 v 312.145 c 0,26.895 -22.713,48.698 -50.732,48.698" /><path
       inkscape:connector-curvature="0"
       id="path20"
       style="fill:#62a6cb;fill-opacity:1;fill-rule:nonzero;stroke:none;stroke-width:0.1"
       d="M 600.165,254.698 C 600.165,227.812 577.453,206 549.435,206 H 212.717 c -28.008,0 -50.711,21.812 -50.711,48.698 v 312.146 c 0,26.895 22.703,48.699 50.711,48.699 h 336.718 c 28.018,0 50.73,-21.804 50.73,-48.699 V 254.698" /><path
       inkscape:connector-curvature="0"
       id="path22"
       style="fill:#a1e0f8;fill-opacity:1;fill-rule:nonzero;stroke:none;stroke-width:0.1"
       d="M 549.435,607.483 H 212.717 c -23.333,0 -42.327,-18.233 -42.327,-40.639 v -8.115 c 0,22.406 18.994,40.64 42.327,40.64 h 336.718 c 23.343,0 42.336,-18.234 42.336,-40.64 v 8.115 c 0,22.406 -18.993,40.639 -42.336,40.639" /><path
       inkscape:connector-curvature="0"
       id="path24"
       style="fill:#fbca4c;fill-opacity:1;fill-rule:nonzero;stroke:none;stroke-width:0.1"
       d="M 578.314,446.253 H 181.278 v 74.999 h 397.036 v -74.999" /><path
       inkscape:connector-curvature="0"
       id="path26"
       style="fill:#df834d;fill-opacity:1;fill-rule:nonzero;stroke:none;stroke-width:0.1"
       d="m 189.662,513.212 c 0,-11.046 0,-43.821 0,-54.857 15.839,0 364.438,0 380.278,0 0,11.036 0,43.811 0,54.857 -15.84,0 -364.439,0 -380.278,0" /><path
       inkscape:connector-curvature="0"
       id="path28"
       style="fill:#fddfb0;fill-opacity:1;fill-rule:nonzero;stroke:none;stroke-width:0.1"
       d="m 192.054,510.912 c 0,-4.043 0,-46.213 0,-50.248 4.72,0 370.773,0 375.483,0 0,4.035 0,46.205 0,50.248 -4.71,0 -370.763,0 -375.483,0" /><path
       inkscape:connector-curvature="0"
       id="path30"
       style="fill:#fddfb0;fill-opacity:1;fill-rule:nonzero;stroke:none;stroke-width:0.1"
       d="m 181.278,275.671 c 0,-26.891 22.703,-48.692 50.721,-48.692 h 295.594 c 28.017,0 50.721,21.801 50.721,48.692 V 446.253 H 181.278 V 275.671" /><path
       inkscape:connector-curvature="0"
       id="path32"
       style="fill:#fddfb0;fill-opacity:1;fill-rule:nonzero;stroke:none;stroke-width:0.1"
       d="m 430.976,541.638 c 0,-5.751 -4.906,-10.452 -10.887,-10.452 h -37.228 c -5.972,0 -10.878,4.701 -10.878,10.452 v 35.723 c 0,5.75 4.906,10.452 10.878,10.452 h 37.228 c 5.981,0 10.887,-4.702 10.887,-10.452 v -35.723" /><path
       inkscape:connector-curvature="0"
       id="path34"
       style="fill:#6fd0f5;fill-opacity:1;fill-rule:nonzero;stroke:none;stroke-width:0.1"
       d="m 382.861,585.717 c -4.794,0 -8.699,-3.738 -8.699,-8.356 v -35.723 c 0,-4.61 3.905,-8.357 8.699,-8.357 h 37.228 c 4.802,0 8.707,3.747 8.707,8.357 v 35.723 c 0,4.618 -3.905,8.356 -8.707,8.356 h -37.228" /><path
       inkscape:connector-curvature="0"
       id="path36"
       style="fill:#fddfb0;fill-opacity:1;fill-rule:nonzero;stroke:none;stroke-width:0.1"
       d="m 500.076,541.638 c 0,-5.751 -4.905,-10.452 -10.879,-10.452 h -37.235 c -5.971,0 -10.868,4.701 -10.868,10.452 v 35.723 c 0,5.75 4.897,10.452 10.868,10.452 h 37.235 c 5.974,0 10.879,-4.702 10.879,-10.452 v -35.723" /><path
       inkscape:connector-curvature="0"
       id="path38"
       style="fill:#6fd0f5;fill-opacity:1;fill-rule:nonzero;stroke:none;stroke-width:0.1"
       d="m 451.962,585.717 c -4.784,0 -8.69,-3.738 -8.69,-8.356 v -35.723 c 0,-4.61 3.906,-8.357 8.69,-8.357 h 37.235 c 4.796,0 8.701,3.747 8.701,8.357 v 35.723 c 0,4.618 -3.905,8.356 -8.701,8.356 h -37.235" /><path
       inkscape:connector-curvature="0"
       id="path40"
       style="fill:#fddfb0;fill-opacity:1;fill-rule:nonzero;stroke:none;stroke-width:0.1"
       d="m 569.18,541.638 c 0,-5.751 -4.889,-10.452 -10.88,-10.452 h -37.227 c -5.981,0 -10.879,4.701 -10.879,10.452 v 35.723 c 0,5.75 4.898,10.452 10.879,10.452 H 558.3 c 5.991,0 10.88,-4.702 10.88,-10.452 v -35.723" /><g
       id="g42"
       transform="scale(0.1)"><g
         clip-path="url(#clipPath48)"
         id="g44"><path
           inkscape:connector-curvature="0"
           id="path56"
           style="fill:url(#linearGradient54);fill-opacity:1;fill-rule:nonzero;stroke:none"
           d="m 5210.73,5857.17 c -47.93,0 -86.98,-37.38 -86.98,-83.56 v -357.23 c 0,-46.1 39.05,-83.57 86.98,-83.57 H 5583 c 47.96,0 86.99,37.47 86.99,83.57 v 357.23 c 0,46.18 -39.03,83.56 -86.99,83.56 h -372.27" /></g></g><path
       inkscape:connector-curvature="0"
       id="path58"
       style="fill:#fddfb0;fill-opacity:1;fill-rule:nonzero;stroke:none;stroke-width:0.1"
       d="m 410.043,540.997 h -26.709 v 8.968 h 26.709 v -8.968" /><path
       inkscape:connector-curvature="0"
       id="path60"
       style="fill:#fddfb0;fill-opacity:1;fill-rule:nonzero;stroke:none;stroke-width:0.1"
       d="m 489.348,541.638 h -38.026 v 34.193 h 38.026 v -34.193" /><path
       inkscape:connector-curvature="0"
       id="path62"
       style="fill:#6fd0f5;fill-opacity:1;fill-rule:nonzero;stroke:none;stroke-width:0.1"
       d="m 487.344,543.659 h -34.029 v 23.612 h 34.029 v -23.612" /><path
       inkscape:connector-curvature="0"
       id="path64"
       style="fill:#fddfb0;fill-opacity:1;fill-rule:nonzero;stroke:none;stroke-width:0.1"
       d="m 531.683,543.269 c -2.282,-2.198 -5.973,-2.198 -8.252,0 v 0 c -2.274,2.18 -2.274,5.723 0,7.911 l 25.587,24.567 c 2.28,2.189 5.972,2.189 8.244,0 v 0 c 2.282,-2.188 2.282,-5.741 0,-7.92 l -25.579,-24.558" /><path
       inkscape:connector-curvature="0"
       id="path66"
       style="fill:#fddfb0;fill-opacity:1;fill-rule:nonzero;stroke:none;stroke-width:0.1"
       d="m 523.439,567.827 c -2.282,2.179 -2.282,5.732 0,7.92 v 0 c 2.271,2.18 5.962,2.18 8.244,0 l 25.579,-24.567 c 2.282,-2.188 2.282,-5.74 0,-7.911 v 0 c -2.272,-2.198 -5.964,-2.198 -8.244,0 l -25.579,24.558" /><path
       inkscape:connector-curvature="0"
       id="path68"
       style="fill:#292930;fill-opacity:1;fill-rule:nonzero;stroke:none;stroke-width:0.1"
       d="m 212.031,503.679 v -12.846 c 0.9,1.27 1.902,2.217 2.995,2.838 1.085,0.63 2.273,0.946 3.562,0.946 1.716,0 3.143,-0.446 4.294,-1.317 1.159,-0.862 1.975,-2.105 2.476,-3.7 0.352,-1.169 0.538,-3.172 0.538,-5.991 v -14.802 h -5.75 v 13.308 c 0,3.089 -0.195,5.018 -0.612,5.797 -0.575,1.048 -1.54,1.567 -2.902,1.567 -1.457,0 -2.589,-0.565 -3.395,-1.697 -0.807,-1.132 -1.206,-3.246 -1.206,-6.344 v -12.631 h -5.75 v 34.872 h 5.75" /><path
       inkscape:connector-curvature="0"
       id="path70"
       style="fill:#292930;fill-opacity:1;fill-rule:nonzero;stroke:none;stroke-width:0.1"
       d="m 241.662,494.042 v -5.258 h -3.894 v -10.23 c 0,-2.207 0.055,-3.497 0.166,-3.84 0.232,-0.639 0.704,-0.964 1.419,-0.964 0.529,0 1.289,0.214 2.282,0.641 l 0.482,-5.157 c -1.318,-0.668 -2.819,-0.992 -4.49,-0.992 -1.455,0 -2.624,0.324 -3.505,0.992 -0.871,0.667 -1.455,1.641 -1.752,2.893 -0.242,0.918 -0.353,2.791 -0.353,5.62 v 11.037 h -2.643 v 5.258 h 2.643 v 5.036 l 5.751,3.904 v -8.94 h 3.894" /><path
       inkscape:connector-curvature="0"
       id="path72"
       style="fill:#292930;fill-opacity:1;fill-rule:nonzero;stroke:none;stroke-width:0.1"
       d="m 255.509,494.042 v -5.258 h -3.896 v -10.23 c 0,-2.207 0.056,-3.497 0.167,-3.84 0.232,-0.639 0.705,-0.964 1.419,-0.964 0.529,0 1.28,0.214 2.272,0.641 l 0.492,-5.157 c -1.317,-0.668 -2.82,-0.992 -4.489,-0.992 -1.465,0 -2.615,0.324 -3.496,0.992 -0.882,0.667 -1.475,1.641 -1.763,2.893 -0.231,0.918 -0.351,2.791 -0.351,5.62 v 11.037 h -2.644 v 5.258 h 2.644 v 5.036 l 5.749,3.904 v -8.94 h 3.896" /><path
       inkscape:connector-curvature="0"
       id="path74"
       style="fill:#292930;fill-opacity:1;fill-rule:nonzero;stroke:none;stroke-width:0.1"
       d="m 259.376,459.171 h 5.749 v 12.752 c 1.086,-1.391 2.115,-2.356 3.098,-2.894 0.992,-0.528 2.049,-0.787 3.182,-0.787 2.466,0 4.58,1.149 6.362,3.449 1.78,2.31 2.68,5.621 2.68,9.97 0,4.136 -0.9,7.327 -2.68,9.58 -1.782,2.244 -3.905,3.376 -6.372,3.376 -1.373,0 -2.662,-0.389 -3.849,-1.15 -1.196,-0.751 -2.16,-1.8 -2.884,-3.134 v 3.709 h -5.286 z m 7.039,28.314 c 0.918,1.243 2.068,1.864 3.441,1.864 1.326,0 2.43,-0.639 3.348,-1.91 0.908,-1.28 1.362,-3.246 1.362,-5.926 0,-2.811 -0.445,-4.842 -1.335,-6.084 -0.89,-1.234 -1.975,-1.865 -3.274,-1.865 -1.362,0 -2.522,0.669 -3.477,2.014 -0.974,1.354 -1.447,3.449 -1.447,6.287 0,2.504 0.464,4.378 1.382,5.62" /><path
       inkscape:connector-curvature="0"
       id="path76"
       style="fill:#292930;fill-opacity:1;fill-rule:nonzero;stroke:none;stroke-width:0.1"
       d="m 286.04,468.807 v 6.65 h 5.675 v -6.65 z m 0,18.577 v 6.658 h 5.675 v -6.658 h -5.675" /><path
       inkscape:connector-curvature="0"
       id="path78"
       style="fill:#292930;fill-opacity:1;fill-rule:nonzero;stroke:none;stroke-width:0.1"
       d="m 295.656,468.242 7.401,36.011 h 4.285 l -7.466,-36.011 h -4.22" /><path
       inkscape:connector-curvature="0"
       id="path80"
       style="fill:#292930;fill-opacity:1;fill-rule:nonzero;stroke:none;stroke-width:0.1"
       d="m 307.222,468.242 7.4,36.011 h 4.294 l -7.476,-36.011 h -4.218" /></g></svg>